HIERARCHY
ROOT RootJoint
{
    OFFSET   0.000000   0.000000   0.000000
    CHANNELS 6 Xposition Yposition Zposition Xrotation Yrotation Zrotation
    JOINT pelvis_lowerback
    {
        OFFSET   0.000000   0.093605   0.000000
        CHANNELS 3 Xrotation Yrotation Zrotation
        JOINT lowerback_torso
        {
            OFFSET   0.000000   0.100000   0.000000
            CHANNELS 3 Xrotation Yrotation Zrotation
            JOINT torso_head
            {
                OFFSET   0.000000   0.282350   0.000000
                CHANNELS 3 Xrotation Yrotation Zrotation
                End Site
                {
                    OFFSET   0.000000   0.192650   0.000000
                }
            }
            JOINT rTorso_Clavicle
            {
                OFFSET  -0.001000   0.157500   0.000000
                CHANNELS 3 Xrotation Yrotation Zrotation
                JOINT rShoulder
                {
                    OFFSET  -0.117647   0.000000   0.000000
                    CHANNELS 3 Xrotation Yrotation Zrotation
                    JOINT rElbow
                    {
                        OFFSET  -0.245000   0.000000   0.000000
                        CHANNELS 3 Xrotation Yrotation Zrotation
                        JOINT rWrist
                        {
                            OFFSET  -0.240000   0.000000   0.000000
                            CHANNELS 3 Xrotation Yrotation Zrotation
                            End Site
                            {
                                OFFSET  -0.116353  -0.002500   0.000000
                            }
                        }
                    }
                }
            }
            JOINT lTorso_Clavicle
            {
                OFFSET   0.001000   0.157500   0.000000
                CHANNELS 3 Xrotation Yrotation Zrotation
                JOINT lShoulder
                {
                    OFFSET   0.117647   0.000000   0.000000
                    CHANNELS 3 Xrotation Yrotation Zrotation
                    JOINT lElbow
                    {
                        OFFSET   0.245000   0.000000   0.000000
                        CHANNELS 3 Xrotation Yrotation Zrotation
                        JOINT lWrist
                        {
                            OFFSET   0.240000   0.000000   0.000000
                            CHANNELS 3 Xrotation Yrotation Zrotation
                            End Site
                            {
                                OFFSET   0.116353  -0.002500   0.000000
                            }
                        }
                    }
                }
            }
        }
    }
    JOINT rHip
    {
        OFFSET  -0.100000  -0.051395   0.000000
        CHANNELS 3 Xrotation Yrotation Zrotation
        JOINT rKnee
        {
            OFFSET   0.000000  -0.410000   0.000000
            CHANNELS 3 Xrotation Yrotation Zrotation
            JOINT rAnkle
            {
                OFFSET   0.000000  -0.390000   0.000000
                CHANNELS 3 Xrotation Yrotation Zrotation
                JOINT rToeJoint
                {
                    OFFSET   0.000000  -0.050000   0.130000
                    CHANNELS 3 Xrotation Yrotation Zrotation
                    End Site
                    {
                        OFFSET  -0.010000   0.002000   0.060000
                    }
                }
            }
        }
    }
    JOINT lHip
    {
        OFFSET   0.100000  -0.051395   0.000000
        CHANNELS 3 Xrotation Yrotation Zrotation
        JOINT lKnee
        {
            OFFSET   0.000000  -0.410000   0.000000
            CHANNELS 3 Xrotation Yrotation Zrotation
            JOINT lAnkle
            {
                OFFSET   0.000000  -0.390000   0.000000
                CHANNELS 3 Xrotation Yrotation Zrotation
                JOINT lToeJoint
                {
                    OFFSET   0.000000  -0.050000   0.130000
                    CHANNELS 3 Xrotation Yrotation Zrotation
                    End Site
                    {
                        OFFSET   0.010000   0.002000   0.060000
                    }
                }
            }
        }
    }
}
MOTION
Frames: 5
Frame Time:   0.008333
 -2.761361   0.858887   4.418945   2.150773 -63.265998  14.278902  10.733537   4.004508  -5.317983   3.055654   2.046066  -0.126395  -0.860866  -8.685467   3.608461   3.132675   0.625328   2.910436  12.939088  15.752188  48.387355  -0.006811  63.413593   0.013633   4.291707   3.256124  -6.296959   8.217637   9.142839  -3.166812  21.789154  -4.880751 -46.712422  -0.001283 -55.938375  -0.001930   3.319405  -4.248949   3.994573  -1.039486  -0.312508   5.241214  31.451188   0.008595   0.029606 -27.545630  -3.502986 -16.080400  -8.370678   0.001654   0.005993 -27.423239  -3.981451   4.852099  50.248379   0.067782   0.152791 -13.159795  11.250535   2.055724  -3.633222  -0.003499  -0.011683
 -2.769535   0.860688   4.423027   2.792261 -64.498592  15.042363  10.644752   4.321449  -5.396297   3.134736   2.201237  -0.310968  -0.919897  -8.810224   3.540051   3.046466   0.898555   2.737955  12.820769  16.049654  48.431421  -0.009488  64.392894   0.016521   4.232555   3.193370  -6.230957   8.304701   9.442781  -3.144290  22.116094  -4.536201 -46.764718  -0.001111 -56.093118  -0.001048   3.270197  -4.231991   3.988420  -0.249470  -0.041471   4.809127  30.960371   0.008002   0.028213 -26.658089  -2.960634 -15.755861  -9.975234   0.001750   0.008104 -27.455278  -4.138302   4.421295  46.960722   0.059446   0.169216 -13.133745  10.964789   1.696413  -3.488236  -0.001599  -0.011475
 -2.777958   0.862407   4.427204   3.497083 -65.679246  15.853611  10.508749   4.621006  -5.442888   3.188712   2.348985  -0.488869  -0.975306  -8.930951   3.469249   2.963957   1.146205   2.552450  12.705778  16.333043  48.474694  -0.012925  65.331559   0.019919   4.186416   3.251540  -6.168149   8.401981   9.748405  -3.111166  22.435648  -4.201260 -46.819300  -0.001073 -56.241773  -0.000481   3.223516  -4.243478   3.999135   0.516749   0.195634   4.378439  30.514201   0.007380   0.026609 -25.713373  -2.477203 -15.422759 -11.777596   0.002059   0.010558 -27.460137  -4.291148   4.000997  43.694654   0.048729   0.181000 -13.114612  10.689546   1.359933  -3.327952   0.000125  -0.011506
 -2.786592   0.863941   4.431449   4.238716 -66.806205  16.691325  10.351907   4.906409  -5.472617   3.217307   2.491458  -0.649411  -1.030840  -9.044293   3.403165   2.883573   1.374622   2.363280  12.595483  16.595929  48.508834  -0.016542  66.213315   0.023234   4.146649   3.351804  -6.126653   8.499362  10.044759  -3.067431  22.740734  -3.880735 -46.867998  -0.001125 -56.380229  -0.000151   3.178746  -4.257613   4.018632   1.276224   0.412432   3.950125  30.102133   0.006742   0.024887 -24.764961  -2.035106 -15.093020 -13.669569   0.002413   0.012817 -27.484531  -4.427396   3.591573  40.613140   0.036543   0.185976 -13.099384  10.430416   1.046930  -3.182645   0.001399  -0.011243
 -2.795421   0.865243   4.435737   5.008824 -67.881573  17.550016  10.183127   5.178310  -5.491277   3.226280   2.628260  -0.793299  -1.085969  -9.150169   3.342114   2.805231   1.587377   2.176221  12.489682  16.839715  48.535212  -0.019996  67.038506   0.026224   4.110357   3.463593  -6.105422   8.592399  10.327124  -3.015185  23.028339  -3.575973 -46.909074  -0.001219 -56.508876   0.000023   3.135601  -4.268703   4.050473   2.032416   0.613877   3.524457  29.724476   0.006102   0.023076 -23.833275  -1.625803 -14.773615 -15.608839   0.002711   0.014717 -27.534005  -4.545254   3.191174  37.737201   0.024238   0.185201 -13.086735  10.186842   0.755665  -3.054680   0.002274  -0.010716
